<!-- icon666.com - MILLIONS vector ICONS FREE --><svg id="Layer_1" enable-background="new 0 0 510 510" viewBox="0 0 510 510" xmlns="http://www.w3.org/2000/svg"><g><g><g><g><g><path d="m255 0c-98.131 0-158.58 55.352-158.747 55.445 0 0-2.513 3.137-2.983 5.222-3.818 16.948-7.385 39.663-7.385 56.238 0 140.833 118.763 254.972 259.596 254.972 54.231 0 114.568-25.992 154.949-57.243.903-.699 3.769-5.396 3.769-5.396.178-1.087 5.8-23.477 5.8-54.239.001-140.832-114.166-254.999-254.999-254.999z" fill="#e5f6fd"></path></g></g></g><g><path d="m345.459 364.679c-140.833 0-255-114.167-255-255l-90.459 145.321c0 78.691 35.644 149.056 91.666 195.832l13.855 1.355 1.271 10.344c41.769 29.883 92.935 47.469 148.208 47.469 44.47 0 86.485-11.446 123.097-31.66l1.081-15.143 16.522 4.477c54.235-35.927 94.135-92.13 108.499-158.435-43.559 34.695-98.724 55.44-158.74 55.44z" fill="#cce1fe"></path></g></g><g><path d="m141.667 426.684-13.618-13.249-36.373 37.388c4.89 4.083 9.931 7.99 15.122 11.704z" fill="#817ddb"></path></g><g><path d="m341.307 413.005-14.177 14.107 50.961 51.216c6.018-3.323 11.89-6.88 17.603-10.665z" fill="#efc250"></path></g><g><g><g><g><path d="m105.452 428.487 20.979 20.979c2.047 2.047 5.366 2.047 7.413 0l30.42-30.42c2.047-2.047 2.047-5.366 0-7.413l-20.979-20.979c-2.047-2.047-5.366-2.047-7.413 0l-30.42 30.42c-2.048 2.046-2.048 5.365 0 7.413z" fill="#26447e"></path></g></g></g><g><g><g><path d="m136.019 402.554 10.268 6.429c11.209 11.209 29.151 11.923 41.215 1.638l241.638-193.572-155.109-15.889-26.331 28.997-13.513 21.444-99.872 109.815c-10.219 12.068-9.479 29.956 1.704 41.138z" fill="#817ddb"></path></g></g></g><g><g><g><path d="m173.005 399.964 234.921-204.129 21.215 21.215-234.922 204.128c-12.064 10.284-30.005 9.571-41.215-1.638l-16.986-16.986c-.713-.713-1.382-1.454-2.01-2.218 11.251 9.244 27.701 9.258 38.997-.372z" fill="#6e64c2"></path></g></g></g><g><g><g><g><path d="m478.716 74.483c29.071 29.071 30.581 63.376 30.602 63.453 0 0-.185 1.674-.663 2.431-3.89 6.152-9.562 13.938-14.472 18.848-41.721 41.721-110.717 40.351-152.438-1.37-16.066-16.066-26.24-41.64-28.945-62.861-.06-.475.482-2.715.482-2.715.269-.375 5.236-8.673 14.35-17.786 41.72-41.721 109.363-41.721 151.084 0z" fill="#fbf490"></path></g></g></g><g><g><g><path d="m274.031 201.16 30.901-36.49c3.872 5.828 8.356 11.369 13.494 16.507 27.815 27.815 67.151 37.079 102.647 27.806l8.067 8.067-73.791 62.907c-19.487-4.153-38.038-13.793-53.176-28.931-14.216-14.218-23.617-31.54-28.142-49.866z" fill="#6e64c2"></path></g></g></g><g><g><g><g><path d="m313.281 92.269c2.626 23.183 20.525 42.36 38.304 60.139 41.721 41.721 101.662 45.032 143.383 3.311 5.515-5.515 10.293-11.482 14.35-17.783 3.533 31.214-6.664 63.693-30.602 87.632-41.721 41.721-109.364 41.721-151.085 0-35.896-35.896-41.218-91.569-14.35-133.299z" fill="#f7e07d"></path></g></g></g></g></g><g><g><g><path d="m423.964 215.801c1.993-8.749 10.254-16.327 19.364-18.728-44.285-32.016-81.109-72.972-109.766-122.201-4.862-8.353-15.574-11.183-23.928-6.32-8.353 4.862-11.182 15.575-6.32 23.928 31.282 53.738 71.565 98.442 120.073 133.372-.391-3.152-.228-6.517.577-10.051z" fill="#88f2a9"></path></g></g></g><g><g><g><path d="m477.765 219.314c-13.914-7.983-27.212-16.735-39.879-26.238-11.498-8.626-27.917-.316-27.917 14.057 0 5.492 2.566 10.683 6.96 13.977 13.938 10.449 28.576 20.072 43.904 28.84 2.741 1.568 5.726 2.312 8.673 2.312 5.989 0 11.814-3.08 15.073-8.584 4.987-8.421 1.676-19.493-6.814-24.364z" fill="#77d0b2"></path></g></g></g><g><g><g><path d="m258.995 241.452-11.295-11.295-59.385 68.747 6.614 6.614c5.317 5.317 13.937 5.317 19.253 0l44.813-44.813c5.317-5.317 5.317-13.937 0-19.253z" fill="#88f2a9"></path></g></g></g><g><g><g><path d="m220.961 267.484c-1.017-1.017-2.152-1.843-3.36-2.483l-21.628 25.037c.351.448.722.886 1.134 1.299 5.478 5.478 14.36 5.478 19.837 0l4.016-4.016c5.479-5.478 5.479-14.359.001-19.837z" fill="#26447e"></path></g></g></g></g><g><g><g><g><path d="m363.624 428.487-20.979 20.979c-2.047 2.047-5.366 2.047-7.413 0l-30.42-30.42c-2.047-2.047-2.047-5.366 0-7.413l20.979-20.979c2.047-2.047 5.366-2.047 7.413 0l30.42 30.42c2.047 2.046 2.047 5.365 0 7.413z" fill="#6e64c2"></path></g></g></g><g><g><g><path d="m333.057 402.554-2.87 1.548c-11.209 11.209-29.151 11.923-41.215 1.638l-249.037-188.691 155.109-15.889 139.716 160.256c10.22 12.068 9.479 29.956-1.703 41.138z" fill="#db387e"></path></g></g></g><g><g><g><path d="m296.071 399.964-234.921-204.13-21.215 21.215 234.921 204.129c12.064 10.284 30.005 9.571 41.215-1.638l16.986-16.986c.713-.713 1.382-1.454 2.01-2.218-11.251 9.244-27.7 9.258-38.996-.372z" fill="#c4237c"></path></g></g></g><g><g><path d="m155.794 92.269c-.269-.375-5.236-8.673-14.35-17.786-11.233-11.233-24.346-19.435-38.324-24.62-4.482 3.423-6.834 5.564-6.867 5.582-39.673 31.606-69.717 74.795-85.005 124.448l7.329 5.383c37.166 11.164 79.613 1.71 108.754-27.431 16.066-16.066 26.24-41.64 28.945-62.861.061-.474-.482-2.715-.482-2.715z" fill="#817ddb"></path></g><g><g><g><path d="m195.044 201.16-30.901-36.49c-3.872 5.828-8.356 11.369-13.494 16.507-27.815 27.815-67.151 37.079-102.647 27.806l-8.067 8.067 73.791 62.907c19.487-4.153 38.038-13.793 53.176-28.931 14.216-14.218 23.617-31.54 28.142-49.866z" fill="#c4237c"></path></g></g></g><g><path d="m155.794 92.269c-2.626 23.183-12.823 45.67-30.602 63.45-30.8 30.8-75.727 38.857-113.923 24.18-2.702 8.777-4.943 17.754-6.695 26.906l11.604 37.804c40.322 21.215 91.356 14.869 125.267-19.042 35.895-35.895 41.218-91.568 14.349-133.298z" fill="#6e64c2"></path></g></g><g><g><path d="m161.203 65.527c-10.023-5.835-22.879-2.439-28.714 7.584-24.946 42.854-56.136 79.378-93.088 109.132v52.309c52.645-36.023 96.076-83.091 129.385-140.311 5.836-10.024 2.44-22.879-7.583-28.714z" fill="#91c7ee"></path></g></g><g><g><path d="m42.294 179.893c-11.988 9.852-24.593 18.981-37.804 27.367-2.976 15.702-4.537 31.904-4.489 48.482l.008.008c3.393-.071 6.817-.957 9.97-2.761 20.943-11.98 40.611-25.536 58.966-40.614 9.599-7.885 10.316-22.327 1.533-31.11-7.643-7.643-19.833-8.235-28.184-1.372z" fill="#41b4e6"></path></g></g><g><g><g><path d="m252.913 326.751-12.003 12.003c-5.317 5.317-13.937 5.317-19.253 0l-44.813-44.813c-5.317-5.317-5.317-13.937 0-19.253l12.003-12.003c5.317-5.317 13.937-5.317 19.253 0l44.813 44.813c5.316 5.317 5.316 13.937 0 19.253z" fill="#26447e"></path></g></g></g><g><g><g><path d="m238.731 324.573c-5.478 5.478-14.36 5.478-19.837 0l-4.016-4.016c-5.478-5.478-5.478-14.359 0-19.837 5.478-5.478 14.359-5.478 19.837 0l4.016 4.016c5.478 5.477 5.478 14.359 0 19.837z" fill="#fbf490"></path></g></g></g></g></g></svg>